
<svg width="250" height="75" viewBox="0 0 250 75" fill="none" xmlns="http://www.w3.org/2000/svg">
  <g transform="translate(0, 25)">
    <path d="M2 0H6V30L2 25V0Z" fill="#2A3647"/>
    <path d="M8 5H12V35L8 30V5Z" fill="#2A3647"/>
    <path d="M14 0H18V30L14 25V0Z" fill="#2A3647"/>
    <path d="M20 5H24V35L20 30V5Z" fill="#2A3647"/>
    <path d="M32 0L36 5V35L32 30V0Z" fill="#2A3647"/>
    <path d="M38 5L42 0V30L38 25V5Z" fill="#2A3647"/>
    <path d="M26 0H30V30L26 25V0Z" fill="#2A3647"/>
    <path d="M56.0475 12.3013C56.0475 6.60131 51.3671 2.22923 45.5378 2.22923C39.7084 2.22923 35 6.53197 35 12.2319V29.4915H40.2358V12.2319C40.2358 9.17505 42.6274 6.88814 45.5378 6.88814C48.4481 6.88814 50.8118 9.17505 50.8118 12.3013C50.8118 15.4276 48.4481 17.7145 45.5378 17.7145H43.7016V22.3734H45.5378C51.3671 22.3734 56.0475 18.0013 56.0475 12.3013Z" fill="#2A3647"/>
    <path d="M73.9341 22.3734V17.7145H72.098C69.1876 17.7145 66.824 15.4276 66.824 12.3013C66.824 9.17505 69.1876 6.88814 72.098 6.88814C75.0083 6.88814 77.3999 9.17505 77.3999 12.2319V29.4915H82.6357V12.2319C82.6357 6.53197 77.9274 2.22923 72.098 2.22923C66.2686 2.22923 61.5882 6.60131 61.5882 12.3013C61.5882 18.0013 66.2686 22.3734 72.098 22.3734H73.9341Z" fill="#2A3647"/>
    <path d="M101.653 7.44217H96.4174V24.7018C96.4174 27.8281 94.0538 30.115 91.1434 30.115C88.2331 30.115 85.8694 27.8281 85.8694 24.7018C85.8694 21.5755 88.2331 19.2886 91.1434 19.2886H92.9796V14.6297H91.1434C85.3141 14.6297 80.6337 19.0018 80.6337 24.7018C80.6337 30.4018 85.3141 34.7739 91.1434 34.7739C96.9728 34.7739 101.653 30.4018 101.653 24.7018V7.44217Z" fill="#2A3647"/>
    <path d="M111.465 2.22923V22.3734C111.465 25.4997 109.101 27.7866 106.191 27.7866C103.281 27.7866 100.917 25.4997 100.917 22.3734C100.917 19.2471 103.281 16.9602 106.191 16.9602H107.999V12.3013H106.191C100.361 12.3013 95.6809 16.6734 95.6809 22.3734C95.6809 28.0734 100.361 32.4455 106.191 32.4455C112.02 32.4455 117.673 28.0734 116.701 22.3734V2.22923H111.465Z" fill="#2A3647"/>
    <path d="M137.705 22.3734V17.7145H135.868C132.958 17.7145 130.595 15.4276 130.595 12.3013C130.595 9.17505 132.958 6.88814 135.868 6.88814C138.779 6.88814 141.17 9.17505 141.17 12.2319V29.4915H146.406V12.2319C146.406 6.53197 141.697 2.22923 135.868 2.22923C130.039 2.22923 125.359 6.60131 125.359 12.3013C125.359 18.0013 130.039 22.3734 135.868 22.3734H137.705Z" fill="#2A3647"/>
    <path d="M153.666 22.3734C153.666 28.0734 158.347 32.4455 164.176 32.4455C170.005 32.4455 174.686 28.0734 174.686 22.3734C174.686 16.6734 170.005 12.3013 164.176 12.3013H162.34V16.9602H164.176C167.087 16.9602 169.45 19.2471 169.45 22.3734C169.45 25.4997 167.087 27.7866 164.176 27.7866C161.266 27.7866 158.902 25.4997 158.902 22.3734V2.22923H153.666V22.3734Z" fill="#2A3647"/>
    <path d="M199.119 24.7018C199.119 19.0018 194.439 14.6297 188.61 14.6297H186.773V19.2886H188.61C191.52 19.2886 193.883 21.5755 193.883 24.7018C193.883 27.8281 191.52 30.115 188.61 30.115C185.699 30.115 183.336 27.8281 183.336 24.7018V2.22923H178.1V24.7018C178.1 30.4018 182.78 34.7739 188.61 34.7739C194.439 34.7739 199.119 30.4018 199.119 24.7018Z" fill="#2A3647"/>
  </g>
</svg>
