
<svg width="300" height="50" viewBox="0 0 300 50" fill="none" xmlns="http://www.w3.org/2000/svg">
  <g transform="translate(0, 0)">
    <rect x="2" y="8" width="3" height="34" rx="1" fill="#000000"/>
    <rect x="8" y="12" width="3" height="26" rx="1" fill="#000000"/>
    <rect x="14" y="5" width="3" height="40" rx="1" fill="#000000"/>
    <rect x="20" y="10" width="3" height="30" rx="1" fill="#000000"/>
    <rect x="26" y="15" width="3" height="20" rx="1" fill="#000000"/>
    <rect x="32" y="8" width="3" height="34" rx="1" fill="#000000"/>
    <rect x="38" y="12" width="3" height="26" rx="1" fill="#000000"/>
  </g>
  <path d="M70 18H76.2857L83.4286 32.9231L90.5714 18H96.8571V40H92V24.4615L85.7143 37.3846H81.1429L74.8571 24.4615V40H70V18Z" fill="#000000"/>
  <path d="M101.857 28.7692C101.857 26.4615 102.398 24.4615 103.48 22.7692C104.562 21.0769 106.041 19.7692 107.918 18.8462C109.827 17.8923 111.98 17.4154 114.377 17.4154C116.775 17.4154 118.714 17.8923 120.194 18.8462C121.673 19.7692 122.745 21.0769 123.408 22.7692C124.102 24.4615 124.449 26.4615 124.449 28.7692C124.449 31.0769 124.102 33.0769 123.408 34.7692C122.714 36.4615 121.612 37.7692 120.102 38.6923C118.622 39.6154 116.714 40.0923 114.377 40.0923C112.041 40.0923 110.112 39.6154 108.602 38.6923C107.092 37.7692 105.99 36.4615 105.296 34.7692C104.602 33.0769 104.255 31.0769 104.255 28.7692H101.857V28.7692ZM106.714 28.7692C106.714 30.2615 106.929 31.5077 107.357 32.5077C107.786 33.5077 108.439 34.2615 109.316 34.7692C110.194 35.2769 111.235 35.5308 112.439 35.5308C113.643 35.5308 114.684 35.2769 115.561 34.7692C116.439 34.2615 117.092 33.5077 117.52 32.5077C117.949 31.5077 118.163 30.2615 118.163 28.7692C118.163 27.2769 117.949 26.0308 117.52 25.0308C117.092 24.0308 116.439 23.2769 115.561 22.7692C114.684 22.2615 113.643 22.0077 112.439 22.0077C111.235 22.0077 110.194 22.2615 109.316 22.7692C108.439 23.2769 107.786 24.0308 107.357 25.0308C106.929 26.0308 106.714 27.2769 106.714 28.7692Z" fill="#000000"/>
  <path d="M127.857 18H133.469L140.612 32.9231V18H145.469V40H139.857L132.714 25.0769V40H127.857V18Z" fill="#000000"/>
  <path d="M158.857 18H164.469L171.612 32.9231V18H176.469V40H170.857L163.714 25.0769V40H158.857V18Z" fill="#000000"/>
  <path d="M180.857 28.7692C180.857 26.4615 181.398 24.4615 182.48 22.7692C183.562 21.0769 185.041 19.7692 186.918 18.8462C188.827 17.8923 190.98 17.4154 193.377 17.4154C195.775 17.4154 197.714 17.8923 199.194 18.8462C200.673 19.7692 201.745 21.0769 202.408 22.7692C203.102 24.4615 203.449 26.4615 203.449 28.7692C203.449 31.0769 203.102 33.0769 202.408 34.7692C201.714 36.4615 200.612 37.7692 199.102 38.6923C197.622 39.6154 195.714 40.0923 193.377 40.0923C191.041 40.0923 189.112 39.6154 187.602 38.6923C186.092 37.7692 184.99 36.4615 184.296 34.7692C183.602 33.0769 183.255 31.0769 183.255 28.7692H180.857V28.7692ZM185.714 28.7692C185.714 30.2615 185.929 31.5077 186.357 32.5077C186.786 33.5077 187.439 34.2615 188.316 34.7692C189.194 35.2769 190.235 35.5308 191.439 35.5308C192.643 35.5308 193.684 35.2769 194.561 34.7692C195.439 34.2615 196.092 33.5077 196.52 32.5077C196.949 31.5077 197.163 30.2615 197.163 28.7692C197.163 27.2769 196.949 26.0308 196.52 25.0308C196.092 24.0308 195.439 23.2769 194.561 22.7692C193.684 22.2615 192.643 22.0077 191.439 22.0077C190.235 22.0077 189.194 22.2615 188.316 22.7692C187.439 23.2769 186.786 24.0308 186.357 25.0308C185.929 26.0308 185.714 27.2769 185.714 28.7692Z" fill="#000000"/>
  <path d="M207.857 18H213.143V33.5385C213.143 34.3846 213.327 35 213.694 35.3846C214.061 35.7692 214.551 35.9615 215.163 35.9615C215.776 35.9615 216.265 35.7692 216.633 35.3846C217 35 217.184 34.3846 217.184 33.5385V18H222.469V33.3846C222.469 35.2308 222.102 36.6923 221.367 37.7692C220.633 38.8462 219.663 39.6154 218.459 40.0769C217.255 40.5385 215.939 40.7692 214.51 40.7692C213.082 40.7692 211.796 40.5385 210.653 40.0769C209.51 39.6154 208.602 38.8462 207.929 37.7692C207.255 36.6923 206.918 35.2308 206.918 33.3846V18H207.857Z" fill="#000000"/>
  <path d="M232.857 18H238.469L245.612 32.9231V18H250.469V40H244.857L237.714 25.0769V40H232.857V18Z" fill="#000000"/>
  <path d="M261.857 40H256.571V18H261.857V40Z" fill="#000000"/>
  <path d="M265.857 18H271.143V35.2308H280.857V40H265.857V18Z" fill="#000000"/>
</svg>
